M48
;Layer_Color=9474304
;FILE_FORMAT=4:4
METRIC,LZ
;TYPE=PLATED
T1F00S00C0.2540
T2F00S00C0.3302
T3F00S00C0.5000
T5F00S00C0.8900
T6F00S00C0.9000
T7F00S00C1.0000
T9F00S00C1.8500
T10F00S00C2.0100
%
T01
X003176Y0008986
Y0010002
X0032522Y0009494
Y0008478
T02
X0026172Y0002255
X002668Y0005737
X002945Y000505
X003049Y0005938
X003575Y00045
X0035475Y00094414
X00358986Y0012175
X00345218
X003685Y001365
X00288722Y0012625
X0027685Y00126
X00185Y001275
X001604Y0015825
X0016Y001695
X0013075Y001805
X0012575Y001905
X00138757Y00190509
X0013075Y002005
X0013125Y00227
X0014225
Y00238
X0013125
X00116Y00251
X0017625Y00227
X0019425Y002165
X0020675Y002275
X003Y0024
X001095Y00127
X0007825Y0015175
X0006325
X000475
X00053Y002365
X00171Y00848
Y0087
Y00893
Y00915
Y00931
X0027975Y011835
X002825Y0126625
T03
X00081746Y00039
X00118101Y00062
X00174Y000515
X0023025
X003245Y00055
X003655Y0007625
X003245Y00146
X00267Y0014675
X00213Y001525
X002073Y0018275
X0022225Y0018325
X0023725Y0018225
X002375Y00211
X0021525Y0021075
X0023575Y00242613
X002527Y00242849
X002355Y0026293
X0023325Y00284583
X0022425Y0030175
X00226Y0032575
X0024975Y0030875
X002855Y003085
X00360566Y00307
X0037725Y00265847
X0032175Y0026175
X002815Y0021025
X003685Y0020975
X003965Y0015885
X00406Y00333
Y00383199
X00313Y0039075
X00336Y003495
X00242Y00394
X0017675Y003785
X001235Y00379
X0012025Y0030725
X0008275Y00318834
X00086334Y00101
X001005Y0007825
X00138Y00090169
X0017375Y00097
X00181Y00111622
X0019475Y00112078
X0020725Y00112487
X0023075Y0009875
X0024525Y00098
X00066Y0012075
X00018009Y001024
Y00207736
X000185Y003135
Y0038425
X00065122Y002825
X001145Y0071925
X00115Y007865
X002Y007845
X0021Y00723
Y00707
X002625Y007165
X00331Y00715
X00356Y0081825
X002565Y0081625
X002505Y0089525
X002Y009
X00193Y00915
Y00931
X0011375Y0087
X00357Y00901
X0035775Y0118225
X0034375Y011825
X0024875Y012195
X0025425Y0125725
X002165Y0124775
X001745
X0017475Y0122125
X0014025Y0124975
X0010925Y0124925
X00109Y012155
X0001225Y0118125
X0002075Y0126775
X0002475Y0141675
X0008675Y0146475
X00125Y014285
X0015675Y01433
X001525Y01381
X00191Y0134575
X001935Y0131025
X0019925Y01276
X0014425Y0128525
X00089Y01337
X0024425Y01324
X00261Y0131375
X0026075Y0133475
X002865Y0132325
X00301Y013545
X0028275Y0137975
X00306Y0141175
X00348785Y01423
X0039675Y014195
X00399Y0138475
X00398Y0133425
X00339Y01333
X0033925Y013645
X00326Y01456707
X0026325Y0145825
X002165Y01406
X0023275Y01388
X001715Y01480607
X003195Y0127825
X003995Y0127265
T05
X0012555Y013221
Y013475
T06
X002232Y01482
X002486
X00274
X002994
T07
X003338Y0019559
Y0022099
Y0024639
X0041
Y0019559
X0037022Y013225
Y013475
Y013725
T09
X00105Y0043
X00315
Y0059
X00105
Y00985
Y01145
X00315
Y00985
T10
X0007475Y012967
Y013983
M30
