G04*
G04 #@! TF.GenerationSoftware,Altium Limited,Altium Designer,20.2.7 (254)*
G04*
G04 Layer_Physical_Order=2*
G04 Layer_Color=16711680*
%FSLAX44Y44*%
%MOMM*%
G71*
G04*
G04 #@! TF.SameCoordinates,09A48B07-2891-40CF-AB4D-50A5A77D63B2*
G04*
G04*
G04 #@! TF.FilePolarity,Positive*
G04*
G01*
G75*
%ADD13C,0.2540*%
%ADD16C,0.5000*%
%ADD27R,1.3000X1.8000*%
%ADD36R,1.8000X1.3000*%
%ADD113C,0.3000*%
%ADD117C,3.5000*%
%ADD118C,1.8000*%
%ADD119C,1.5000*%
%ADD120C,2.0000*%
%ADD121R,2.9000X2.5000*%
%ADD122R,6.0000X5.0000*%
%ADD123R,4.0000X5.0000*%
%ADD124R,1.5000X1.5000*%
%ADD125O,1.0000X1.7000*%
%ADD126C,0.6858*%
%ADD127C,1.0000*%
%ADD128C,0.5080*%
G36*
X416115Y1174650D02*
X345000Y1174650D01*
X345000Y1174650D01*
X285000Y1174650D01*
X135000Y1174650D01*
X135000Y1174650D01*
X84250D01*
X84250Y1174650D01*
X82867D01*
X73350Y1165171D01*
X73350Y615000D01*
Y415000D01*
X73834Y413834D01*
X83834Y403834D01*
X85000Y403350D01*
X135000D01*
X136166Y403834D01*
X136650Y405000D01*
Y615000D01*
X136166Y616166D01*
X135000Y616650D01*
X76270D01*
X75000Y617920D01*
X75000Y957177D01*
X75000Y958350D01*
X135000D01*
X136166Y958834D01*
X136650Y960000D01*
Y1173000D01*
X252250Y1173000D01*
X282080D01*
X283350Y1173000D01*
Y960000D01*
X283834Y958834D01*
X285000Y958350D01*
X345000D01*
X346166Y958834D01*
X346650Y960000D01*
Y1173000D01*
X416115D01*
Y3884D01*
X3884D01*
Y1496116D01*
X230096D01*
X230582Y1494942D01*
X226175Y1490535D01*
X225556Y1490792D01*
X223200Y1491102D01*
X220844Y1490792D01*
X218649Y1489883D01*
X216764Y1488436D01*
X215318Y1486551D01*
X214408Y1484356D01*
X214098Y1482000D01*
X214408Y1479644D01*
X215318Y1477449D01*
X216764Y1475564D01*
X218649Y1474118D01*
X220844Y1473208D01*
X223200Y1472898D01*
X225556Y1473208D01*
X227751Y1474118D01*
X229636Y1475564D01*
X231082Y1477449D01*
X231992Y1479644D01*
X232302Y1482000D01*
X231992Y1484356D01*
X231082Y1486551D01*
X231008Y1486648D01*
X235777Y1491417D01*
X269834D01*
X270087Y1490147D01*
X269449Y1489883D01*
X267564Y1488436D01*
X266118Y1486551D01*
X265208Y1484356D01*
X264898Y1482000D01*
X265208Y1479644D01*
X266118Y1477449D01*
X267564Y1475564D01*
X269449Y1474118D01*
X271644Y1473208D01*
X274000Y1472898D01*
X276356Y1473208D01*
X278551Y1474118D01*
X280436Y1475564D01*
X281882Y1477449D01*
X282792Y1479644D01*
X283102Y1482000D01*
X282792Y1484356D01*
X281882Y1486551D01*
X280436Y1488436D01*
X278551Y1489883D01*
X277913Y1490147D01*
X278165Y1491417D01*
X289825D01*
X290518Y1490147D01*
X290250Y1489500D01*
Y1474500D01*
X290734Y1473334D01*
X291900Y1472850D01*
X306900D01*
X308066Y1473334D01*
X308550Y1474500D01*
Y1489500D01*
X308282Y1490147D01*
X308975Y1491417D01*
X348785D01*
X351917Y1488285D01*
Y1457000D01*
X351917Y1457000D01*
X352151Y1455820D01*
X352820Y1454820D01*
X367137Y1440503D01*
Y1383696D01*
X364408Y1382566D01*
X362001Y1380719D01*
X360154Y1378312D01*
X358993Y1375508D01*
X358597Y1372500D01*
X358993Y1369492D01*
X360154Y1366688D01*
X362001Y1364281D01*
X364408Y1362434D01*
X367212Y1361273D01*
X370220Y1360877D01*
X373228Y1361273D01*
X376032Y1362434D01*
X378439Y1364281D01*
X380286Y1366688D01*
X381447Y1369492D01*
X381843Y1372500D01*
X381447Y1375508D01*
X380286Y1378312D01*
X378439Y1380719D01*
X376032Y1382566D01*
X373303Y1383696D01*
Y1441780D01*
X373303Y1441780D01*
X373069Y1442960D01*
X372400Y1443960D01*
X372400Y1443960D01*
X358083Y1458277D01*
Y1489562D01*
X358083Y1489562D01*
X357849Y1490742D01*
X357180Y1491742D01*
X357180Y1491742D01*
X353980Y1494942D01*
X354466Y1496116D01*
X416115D01*
Y1174650D01*
D02*
G37*
G36*
X345000Y960000D02*
X285000D01*
Y1173000D01*
X345000Y1173000D01*
Y960000D01*
D02*
G37*
G36*
X135000Y1173000D02*
Y960000D01*
X75000D01*
Y1163750D01*
X75001Y1163751D01*
X84250Y1173000D01*
X135000D01*
D02*
G37*
G36*
Y405000D02*
X85000D01*
X75000Y415000D01*
Y615000D01*
X135000D01*
Y405000D01*
D02*
G37*
%LPC*%
G36*
X391477Y1488885D02*
X388523D01*
X388147Y1488810D01*
X387765D01*
X384867Y1488233D01*
X384513Y1488087D01*
X384138Y1488013D01*
X381408Y1486882D01*
X381090Y1486669D01*
X380737Y1486523D01*
X378280Y1484881D01*
X378009Y1484611D01*
X377691Y1484398D01*
X375602Y1482309D01*
X375389Y1481991D01*
X375119Y1481720D01*
X373477Y1479263D01*
X373331Y1478910D01*
X373118Y1478592D01*
X371987Y1475862D01*
X371913Y1475487D01*
X371766Y1475133D01*
X371190Y1472235D01*
Y1471853D01*
X371115Y1471477D01*
Y1468523D01*
X371190Y1468147D01*
Y1467765D01*
X371766Y1464867D01*
X371913Y1464513D01*
X371987Y1464138D01*
X373118Y1461408D01*
X373331Y1461090D01*
X373477Y1460737D01*
X375119Y1458280D01*
X375389Y1458009D01*
X375602Y1457691D01*
X377691Y1455602D01*
X378009Y1455389D01*
X378280Y1455119D01*
X380737Y1453477D01*
X381090Y1453331D01*
X381408Y1453118D01*
X384138Y1451987D01*
X384513Y1451913D01*
X384867Y1451766D01*
X387765Y1451190D01*
X388147D01*
X388523Y1451115D01*
X391477D01*
X391853Y1451190D01*
X392235D01*
X395133Y1451766D01*
X395487Y1451913D01*
X395862Y1451987D01*
X398592Y1453118D01*
X398910Y1453331D01*
X399263Y1453477D01*
X401720Y1455119D01*
X401991Y1455389D01*
X402309Y1455602D01*
X404398Y1457691D01*
X404611Y1458009D01*
X404881Y1458280D01*
X406523Y1460737D01*
X406669Y1461090D01*
X406882Y1461408D01*
X408013Y1464138D01*
X408087Y1464513D01*
X408233Y1464867D01*
X408810Y1467765D01*
Y1468147D01*
X408885Y1468523D01*
Y1471477D01*
X408810Y1471853D01*
Y1472235D01*
X408233Y1475133D01*
X408087Y1475487D01*
X408013Y1475862D01*
X406882Y1478592D01*
X406669Y1478910D01*
X406523Y1479263D01*
X404881Y1481720D01*
X404611Y1481991D01*
X404398Y1482309D01*
X402309Y1484398D01*
X401991Y1484611D01*
X401720Y1484881D01*
X399263Y1486523D01*
X398910Y1486669D01*
X398592Y1486882D01*
X395862Y1488013D01*
X395487Y1488087D01*
X395133Y1488233D01*
X392235Y1488810D01*
X391853D01*
X391477Y1488885D01*
D02*
G37*
G36*
X31477D02*
X28523D01*
X28147Y1488810D01*
X27765D01*
X24867Y1488233D01*
X24513Y1488087D01*
X24138Y1488013D01*
X21408Y1486882D01*
X21090Y1486669D01*
X20737Y1486523D01*
X18280Y1484881D01*
X18009Y1484611D01*
X17691Y1484398D01*
X15602Y1482309D01*
X15389Y1481991D01*
X15119Y1481720D01*
X13477Y1479263D01*
X13331Y1478910D01*
X13118Y1478592D01*
X11988Y1475862D01*
X11913Y1475487D01*
X11766Y1475133D01*
X11190Y1472235D01*
Y1471853D01*
X11115Y1471477D01*
Y1468523D01*
X11190Y1468147D01*
Y1467765D01*
X11766Y1464867D01*
X11913Y1464513D01*
X11988Y1464138D01*
X13118Y1461408D01*
X13331Y1461090D01*
X13477Y1460737D01*
X15119Y1458280D01*
X15389Y1458009D01*
X15602Y1457691D01*
X17691Y1455602D01*
X18009Y1455389D01*
X18280Y1455119D01*
X20737Y1453477D01*
X21090Y1453331D01*
X21408Y1453118D01*
X24138Y1451987D01*
X24513Y1451913D01*
X24867Y1451766D01*
X27765Y1451190D01*
X28147D01*
X28523Y1451115D01*
X31477D01*
X31853Y1451190D01*
X32235D01*
X35133Y1451766D01*
X35487Y1451913D01*
X35862Y1451987D01*
X38592Y1453118D01*
X38910Y1453331D01*
X39263Y1453477D01*
X41720Y1455119D01*
X41991Y1455389D01*
X42309Y1455602D01*
X44398Y1457691D01*
X44611Y1458009D01*
X44881Y1458280D01*
X46523Y1460737D01*
X46669Y1461090D01*
X46882Y1461408D01*
X48012Y1464138D01*
X48087Y1464513D01*
X48233Y1464867D01*
X48810Y1467765D01*
Y1468147D01*
X48885Y1468523D01*
Y1471477D01*
X48810Y1471853D01*
Y1472235D01*
X48233Y1475133D01*
X48087Y1475487D01*
X48012Y1475862D01*
X46882Y1478592D01*
X46669Y1478910D01*
X46523Y1479263D01*
X44881Y1481720D01*
X44611Y1481991D01*
X44398Y1482309D01*
X42309Y1484398D01*
X41991Y1484611D01*
X41720Y1484881D01*
X39263Y1486523D01*
X38910Y1486669D01*
X38592Y1486882D01*
X35862Y1488013D01*
X35487Y1488087D01*
X35133Y1488233D01*
X32235Y1488810D01*
X31853D01*
X31477Y1488885D01*
D02*
G37*
G36*
X370220Y1359123D02*
X367212Y1358727D01*
X364408Y1357566D01*
X362001Y1355719D01*
X360154Y1353312D01*
X359604Y1351983D01*
X325220D01*
X325220Y1351983D01*
X324040Y1351749D01*
X323040Y1351080D01*
X323040Y1351080D01*
X302720Y1330760D01*
X302052Y1329760D01*
X301817Y1328580D01*
X301817Y1328580D01*
Y1286926D01*
X285256Y1270365D01*
X284433Y1270916D01*
X282500Y1271300D01*
X280567Y1270916D01*
X278929Y1269821D01*
X277834Y1268183D01*
X277450Y1266250D01*
X277834Y1264317D01*
X278929Y1262679D01*
X280567Y1261584D01*
X282500Y1261200D01*
X284433Y1261584D01*
X286071Y1262679D01*
X286534Y1263372D01*
X286681Y1263401D01*
X287682Y1264070D01*
X307080Y1283468D01*
X307080Y1283468D01*
X307749Y1284469D01*
X307983Y1285649D01*
Y1327303D01*
X326497Y1345817D01*
X358818D01*
X358993Y1344492D01*
X360154Y1341688D01*
X362001Y1339281D01*
X364408Y1337434D01*
X367212Y1336273D01*
X370220Y1335877D01*
X373228Y1336273D01*
X376032Y1337434D01*
X378439Y1339281D01*
X380286Y1341688D01*
X381447Y1344492D01*
X381843Y1347500D01*
X381447Y1350508D01*
X380286Y1353312D01*
X378439Y1355719D01*
X376032Y1357566D01*
X373228Y1358727D01*
X370220Y1359123D01*
D02*
G37*
G36*
X125550Y1358115D02*
X122803Y1357753D01*
X120243Y1356693D01*
X118044Y1355006D01*
X116357Y1352807D01*
X115297Y1350247D01*
X114935Y1347500D01*
X115297Y1344753D01*
X116357Y1342193D01*
X118044Y1339994D01*
X120243Y1338307D01*
X122803Y1337247D01*
X125550Y1336885D01*
X128297Y1337247D01*
X130857Y1338307D01*
X133056Y1339994D01*
X134743Y1342193D01*
X135803Y1344753D01*
X136165Y1347500D01*
X135803Y1350247D01*
X134743Y1352807D01*
X133056Y1355006D01*
X130857Y1356693D01*
X128297Y1357753D01*
X125550Y1358115D01*
D02*
G37*
G36*
X370220Y1334123D02*
X367212Y1333727D01*
X364408Y1332566D01*
X362001Y1330719D01*
X360154Y1328312D01*
X358993Y1325508D01*
X358597Y1322500D01*
X358993Y1319492D01*
X360154Y1316688D01*
X362001Y1314281D01*
X364408Y1312434D01*
X367212Y1311273D01*
X370220Y1310877D01*
X373228Y1311273D01*
X376032Y1312434D01*
X378439Y1314281D01*
X380286Y1316688D01*
X381447Y1319492D01*
X381843Y1322500D01*
X381447Y1325508D01*
X380286Y1328312D01*
X378439Y1330719D01*
X376032Y1332566D01*
X373228Y1333727D01*
X370220Y1334123D01*
D02*
G37*
G36*
X391477Y1243885D02*
X388523D01*
X388147Y1243810D01*
X387765D01*
X384867Y1243233D01*
X384513Y1243087D01*
X384138Y1243012D01*
X381408Y1241882D01*
X381090Y1241669D01*
X380737Y1241523D01*
X378280Y1239881D01*
X378009Y1239611D01*
X377691Y1239398D01*
X375602Y1237309D01*
X375389Y1236991D01*
X375119Y1236720D01*
X373477Y1234263D01*
X373331Y1233910D01*
X373118Y1233592D01*
X371987Y1230862D01*
X371913Y1230487D01*
X371766Y1230133D01*
X371190Y1227235D01*
Y1226853D01*
X371115Y1226477D01*
Y1223523D01*
X371190Y1223147D01*
Y1222765D01*
X371766Y1219867D01*
X371913Y1219513D01*
X371987Y1219138D01*
X373118Y1216408D01*
X373331Y1216090D01*
X373477Y1215737D01*
X375119Y1213280D01*
X375389Y1213009D01*
X375602Y1212691D01*
X377691Y1210602D01*
X378009Y1210389D01*
X378280Y1210119D01*
X380737Y1208477D01*
X381090Y1208331D01*
X381408Y1208118D01*
X384138Y1206988D01*
X384513Y1206913D01*
X384867Y1206766D01*
X387765Y1206190D01*
X388147D01*
X388523Y1206115D01*
X391477D01*
X391853Y1206190D01*
X392235D01*
X395133Y1206766D01*
X395487Y1206913D01*
X395862Y1206988D01*
X398592Y1208118D01*
X398910Y1208331D01*
X399263Y1208477D01*
X401720Y1210119D01*
X401991Y1210389D01*
X402309Y1210602D01*
X404398Y1212691D01*
X404611Y1213009D01*
X404881Y1213280D01*
X406523Y1215737D01*
X406669Y1216090D01*
X406882Y1216408D01*
X408013Y1219138D01*
X408087Y1219513D01*
X408233Y1219867D01*
X408810Y1222765D01*
Y1223147D01*
X408885Y1223523D01*
Y1226477D01*
X408810Y1226853D01*
Y1227235D01*
X408233Y1230133D01*
X408087Y1230487D01*
X408013Y1230862D01*
X406882Y1233592D01*
X406669Y1233910D01*
X406523Y1234263D01*
X404881Y1236720D01*
X404611Y1236991D01*
X404398Y1237309D01*
X402309Y1239398D01*
X401991Y1239611D01*
X401720Y1239881D01*
X399263Y1241523D01*
X398910Y1241669D01*
X398592Y1241882D01*
X395862Y1243012D01*
X395487Y1243087D01*
X395133Y1243233D01*
X392235Y1243810D01*
X391853D01*
X391477Y1243885D01*
D02*
G37*
G36*
X31477D02*
X28523D01*
X28147Y1243810D01*
X27765D01*
X24867Y1243233D01*
X24513Y1243087D01*
X24138Y1243012D01*
X21408Y1241882D01*
X21090Y1241669D01*
X20737Y1241523D01*
X18280Y1239881D01*
X18009Y1239611D01*
X17691Y1239398D01*
X15602Y1237309D01*
X15389Y1236991D01*
X15119Y1236720D01*
X13477Y1234263D01*
X13331Y1233910D01*
X13118Y1233592D01*
X11988Y1230862D01*
X11913Y1230487D01*
X11766Y1230133D01*
X11190Y1227235D01*
Y1226853D01*
X11115Y1226477D01*
Y1223523D01*
X11190Y1223147D01*
Y1222765D01*
X11766Y1219867D01*
X11913Y1219513D01*
X11988Y1219138D01*
X13118Y1216408D01*
X13331Y1216090D01*
X13477Y1215737D01*
X15119Y1213280D01*
X15389Y1213009D01*
X15602Y1212691D01*
X17691Y1210602D01*
X18009Y1210389D01*
X18280Y1210119D01*
X20737Y1208477D01*
X21090Y1208331D01*
X21408Y1208118D01*
X24138Y1206988D01*
X24513Y1206913D01*
X24867Y1206766D01*
X27765Y1206190D01*
X28147D01*
X28523Y1206115D01*
X31477D01*
X31853Y1206190D01*
X32235D01*
X35133Y1206766D01*
X35487Y1206913D01*
X35862Y1206988D01*
X38592Y1208118D01*
X38910Y1208331D01*
X39263Y1208477D01*
X41720Y1210119D01*
X41991Y1210389D01*
X42309Y1210602D01*
X44398Y1212691D01*
X44611Y1213009D01*
X44881Y1213280D01*
X46523Y1215737D01*
X46669Y1216090D01*
X46882Y1216408D01*
X48012Y1219138D01*
X48087Y1219513D01*
X48233Y1219867D01*
X48810Y1222765D01*
Y1223147D01*
X48885Y1223523D01*
Y1226477D01*
X48810Y1226853D01*
Y1227235D01*
X48233Y1230133D01*
X48087Y1230487D01*
X48012Y1230862D01*
X46882Y1233592D01*
X46669Y1233910D01*
X46523Y1234263D01*
X44881Y1236720D01*
X44611Y1236991D01*
X44398Y1237309D01*
X42309Y1239398D01*
X41991Y1239611D01*
X41720Y1239881D01*
X39263Y1241523D01*
X38910Y1241669D01*
X38592Y1241882D01*
X35862Y1243012D01*
X35487Y1243087D01*
X35133Y1243233D01*
X32235Y1243810D01*
X31853D01*
X31477Y1243885D01*
D02*
G37*
G36*
X318500Y1209650D02*
X305500D01*
X304334Y1209166D01*
X303850Y1208000D01*
Y1196961D01*
X293473Y1186583D01*
X283647D01*
X283321Y1187071D01*
X281682Y1188166D01*
X279750Y1188550D01*
X277817Y1188166D01*
X276179Y1187071D01*
X275084Y1185433D01*
X274700Y1183500D01*
X275084Y1181567D01*
X276179Y1179929D01*
X277817Y1178834D01*
X279750Y1178450D01*
X281682Y1178834D01*
X283321Y1179929D01*
X283647Y1180417D01*
X294750D01*
X294750Y1180417D01*
X295930Y1180651D01*
X296930Y1181320D01*
X304412Y1188801D01*
X305500Y1188350D01*
X318500D01*
X319666Y1188834D01*
X320150Y1190000D01*
Y1208000D01*
X319666Y1209166D01*
X318500Y1209650D01*
D02*
G37*
G36*
X180000Y941650D02*
X162000D01*
X160834Y941166D01*
X160350Y940000D01*
X160350Y835000D01*
X160834Y833834D01*
X162000Y833350D01*
X180000D01*
X181166Y833834D01*
X181650Y835000D01*
X181650Y940000D01*
X181166Y941166D01*
X180000Y941650D01*
D02*
G37*
G36*
X345000Y616650D02*
X285000D01*
X283834Y616166D01*
X283350Y615000D01*
Y405000D01*
X283834Y403834D01*
X285000Y403350D01*
X345000D01*
X346166Y403834D01*
X346650Y405000D01*
Y615000D01*
X346166Y616166D01*
X345000Y616650D01*
D02*
G37*
G36*
X391477Y378885D02*
X388523D01*
X388147Y378810D01*
X387765D01*
X384867Y378233D01*
X384513Y378087D01*
X384138Y378013D01*
X381408Y376882D01*
X381090Y376669D01*
X380737Y376523D01*
X378280Y374881D01*
X378009Y374611D01*
X377691Y374398D01*
X375602Y372309D01*
X375389Y371991D01*
X375119Y371720D01*
X373477Y369263D01*
X373331Y368910D01*
X373118Y368592D01*
X371987Y365862D01*
X371913Y365487D01*
X371766Y365133D01*
X371190Y362235D01*
Y361853D01*
X371115Y361477D01*
Y358523D01*
X371190Y358147D01*
Y357765D01*
X371766Y354867D01*
X371913Y354513D01*
X371987Y354138D01*
X373118Y351408D01*
X373331Y351090D01*
X373477Y350737D01*
X375119Y348280D01*
X375389Y348009D01*
X375602Y347691D01*
X377691Y345602D01*
X378009Y345389D01*
X378280Y345119D01*
X380737Y343477D01*
X381090Y343331D01*
X381408Y343118D01*
X384138Y341987D01*
X384513Y341913D01*
X384867Y341766D01*
X387765Y341190D01*
X388147D01*
X388523Y341115D01*
X391477D01*
X391853Y341190D01*
X392235D01*
X395133Y341766D01*
X395487Y341913D01*
X395862Y341987D01*
X398592Y343118D01*
X398910Y343331D01*
X399263Y343477D01*
X401720Y345119D01*
X401991Y345389D01*
X402309Y345602D01*
X404398Y347691D01*
X404611Y348009D01*
X404881Y348280D01*
X406523Y350737D01*
X406669Y351090D01*
X406882Y351408D01*
X408013Y354138D01*
X408087Y354513D01*
X408233Y354867D01*
X408810Y357765D01*
Y358147D01*
X408885Y358523D01*
Y361477D01*
X408810Y361853D01*
Y362235D01*
X408233Y365133D01*
X408087Y365487D01*
X408013Y365862D01*
X406882Y368592D01*
X406669Y368910D01*
X406523Y369263D01*
X404881Y371720D01*
X404611Y371991D01*
X404398Y372309D01*
X402309Y374398D01*
X401991Y374611D01*
X401720Y374881D01*
X399263Y376523D01*
X398910Y376669D01*
X398592Y376882D01*
X395862Y378013D01*
X395487Y378087D01*
X395133Y378233D01*
X392235Y378810D01*
X391853D01*
X391477Y378885D01*
D02*
G37*
G36*
X31477Y368885D02*
X28523D01*
X28147Y368810D01*
X27765D01*
X24867Y368234D01*
X24513Y368087D01*
X24138Y368013D01*
X21408Y366882D01*
X21090Y366669D01*
X20737Y366523D01*
X18280Y364881D01*
X18009Y364611D01*
X17691Y364398D01*
X15602Y362309D01*
X15389Y361991D01*
X15119Y361720D01*
X13477Y359263D01*
X13331Y358910D01*
X13118Y358592D01*
X11988Y355862D01*
X11913Y355487D01*
X11766Y355133D01*
X11190Y352235D01*
Y351853D01*
X11115Y351477D01*
Y348523D01*
X11190Y348147D01*
Y347765D01*
X11766Y344867D01*
X11913Y344513D01*
X11988Y344138D01*
X13118Y341408D01*
X13331Y341090D01*
X13477Y340737D01*
X15119Y338280D01*
X15389Y338009D01*
X15602Y337691D01*
X17691Y335602D01*
X18009Y335389D01*
X18280Y335119D01*
X20737Y333477D01*
X21090Y333331D01*
X21408Y333118D01*
X24138Y331987D01*
X24513Y331913D01*
X24867Y331766D01*
X27765Y331190D01*
X28147D01*
X28523Y331115D01*
X31477D01*
X31853Y331190D01*
X32235D01*
X35133Y331766D01*
X35487Y331913D01*
X35862Y331987D01*
X38592Y333118D01*
X38910Y333331D01*
X39263Y333477D01*
X41720Y335119D01*
X41991Y335389D01*
X42309Y335602D01*
X44398Y337691D01*
X44611Y338009D01*
X44881Y338280D01*
X46523Y340737D01*
X46669Y341090D01*
X46882Y341408D01*
X48012Y344138D01*
X48087Y344513D01*
X48233Y344867D01*
X48810Y347765D01*
Y348147D01*
X48885Y348523D01*
Y351477D01*
X48810Y351853D01*
Y352235D01*
X48233Y355133D01*
X48087Y355487D01*
X48012Y355862D01*
X46882Y358592D01*
X46669Y358910D01*
X46523Y359263D01*
X44881Y361720D01*
X44611Y361991D01*
X44398Y362309D01*
X42309Y364398D01*
X41991Y364611D01*
X41720Y364881D01*
X39263Y366523D01*
X38910Y366669D01*
X38592Y366882D01*
X35862Y368013D01*
X35487Y368087D01*
X35133Y368234D01*
X32235Y368810D01*
X31853D01*
X31477Y368885D01*
D02*
G37*
G36*
X300000Y245050D02*
X298067Y244666D01*
X296429Y243571D01*
X295334Y241933D01*
X294950Y240000D01*
X295119Y239148D01*
X285570Y229599D01*
X211305D01*
X210321Y231071D01*
X208683Y232166D01*
X206750Y232550D01*
X205758Y232353D01*
X205340Y232632D01*
X204250Y232849D01*
X204250Y232849D01*
X179250D01*
X179250Y232849D01*
X178160Y232632D01*
X177236Y232014D01*
X177236Y232014D01*
X177102Y231881D01*
X176250Y232050D01*
X174317Y231666D01*
X172679Y230571D01*
X171584Y228933D01*
X171200Y227000D01*
X171584Y225067D01*
X172679Y223429D01*
X174317Y222334D01*
X176250Y221950D01*
X178183Y222334D01*
X179821Y223429D01*
X180916Y225067D01*
X181300Y227000D01*
X181424Y227151D01*
X201769D01*
X202084Y225567D01*
X203179Y223929D01*
X204817Y222834D01*
X206750Y222450D01*
X208683Y222834D01*
X210279Y223901D01*
X286750D01*
X286750Y223901D01*
X287840Y224118D01*
X288764Y224736D01*
X299148Y235119D01*
X300000Y234950D01*
X301933Y235334D01*
X303571Y236429D01*
X304666Y238067D01*
X305050Y240000D01*
X304666Y241933D01*
X303571Y243571D01*
X301933Y244666D01*
X300000Y245050D01*
D02*
G37*
G36*
X333800Y258013D02*
X330792Y257617D01*
X327988Y256456D01*
X325581Y254609D01*
X323734Y252202D01*
X322573Y249398D01*
X322177Y246390D01*
X322573Y243382D01*
X323734Y240578D01*
X325581Y238171D01*
X327988Y236324D01*
X330792Y235163D01*
X333800Y234767D01*
X336808Y235163D01*
X339612Y236324D01*
X342019Y238171D01*
X343866Y240578D01*
X345027Y243382D01*
X345423Y246390D01*
X345027Y249398D01*
X343866Y252202D01*
X342019Y254609D01*
X339612Y256456D01*
X336808Y257617D01*
X333800Y258013D01*
D02*
G37*
G36*
Y232613D02*
X330792Y232217D01*
X327988Y231056D01*
X325581Y229209D01*
X323734Y226802D01*
X322573Y223998D01*
X322177Y220990D01*
X322573Y217982D01*
X323734Y215178D01*
X325581Y212771D01*
X327988Y210924D01*
X330792Y209763D01*
X333800Y209366D01*
X336808Y209763D01*
X339612Y210924D01*
X342019Y212771D01*
X343866Y215178D01*
X345027Y217982D01*
X345423Y220990D01*
X345027Y223998D01*
X343866Y226802D01*
X342019Y229209D01*
X339612Y231056D01*
X336808Y232217D01*
X333800Y232613D01*
D02*
G37*
G36*
X116000Y256050D02*
X114067Y255666D01*
X112429Y254571D01*
X111334Y252933D01*
X110950Y251000D01*
X111334Y249067D01*
X112429Y247429D01*
X112917Y247103D01*
Y220750D01*
X112917Y220750D01*
X113152Y219570D01*
X113820Y218570D01*
X121320Y211070D01*
X121320Y211070D01*
X122320Y210401D01*
X123500Y210167D01*
X132973D01*
X135674Y207466D01*
Y194406D01*
X135186Y194080D01*
X134091Y192442D01*
X133707Y190509D01*
X134091Y188577D01*
X135186Y186938D01*
X136824Y185844D01*
X138757Y185459D01*
X140689Y185844D01*
X142328Y186938D01*
X143422Y188577D01*
X143807Y190509D01*
X143422Y192442D01*
X142328Y194080D01*
X141840Y194406D01*
Y208743D01*
X141605Y209923D01*
X140937Y210923D01*
X140937Y210924D01*
X136430Y215430D01*
X135430Y216098D01*
X134250Y216333D01*
X134250Y216333D01*
X124777D01*
X119083Y222027D01*
Y247103D01*
X119571Y247429D01*
X120666Y249067D01*
X121050Y251000D01*
X120666Y252933D01*
X119571Y254571D01*
X117933Y255666D01*
X116000Y256050D01*
D02*
G37*
G36*
X194250Y221550D02*
X192317Y221166D01*
X190679Y220071D01*
X189584Y218433D01*
X189200Y216500D01*
X189584Y214567D01*
X190679Y212929D01*
X191401Y212446D01*
Y137930D01*
X185852Y132381D01*
X185000Y132550D01*
X183067Y132166D01*
X181429Y131071D01*
X180334Y129433D01*
X179950Y127500D01*
X180334Y125567D01*
X181429Y123929D01*
X183067Y122834D01*
X185000Y122450D01*
X186933Y122834D01*
X188571Y123929D01*
X189666Y125567D01*
X190050Y127500D01*
X189881Y128352D01*
X196264Y134736D01*
X196882Y135660D01*
X197099Y136750D01*
X197099Y136750D01*
Y212446D01*
X197821Y212929D01*
X198916Y214567D01*
X199300Y216500D01*
X198916Y218433D01*
X197821Y220071D01*
X196183Y221166D01*
X194250Y221550D01*
D02*
G37*
G36*
X349000Y52650D02*
X331000D01*
X329834Y52166D01*
X329350Y51000D01*
Y38000D01*
X329834Y36834D01*
X331000Y36350D01*
X349000D01*
X350166Y36834D01*
X350650Y38000D01*
Y41917D01*
X353603D01*
X353929Y41429D01*
X355568Y40334D01*
X357500Y39950D01*
X359433Y40334D01*
X361071Y41429D01*
X362166Y43067D01*
X362550Y45000D01*
X362166Y46933D01*
X361071Y48571D01*
X359433Y49666D01*
X357500Y50050D01*
X355568Y49666D01*
X353929Y48571D01*
X353603Y48083D01*
X350650D01*
Y51000D01*
X350166Y52166D01*
X349000Y52650D01*
D02*
G37*
G36*
X266800Y62420D02*
X264867Y62036D01*
X263229Y60941D01*
X262134Y59303D01*
X261750Y57370D01*
X262134Y55437D01*
X263229Y53799D01*
X264867Y52704D01*
X266800Y52320D01*
X267375Y52434D01*
X268850Y50959D01*
Y38170D01*
X269334Y37004D01*
X270500Y36521D01*
X288500D01*
X289666Y37004D01*
X290150Y38170D01*
Y51170D01*
X289666Y52336D01*
X288500Y52820D01*
X275711D01*
X271736Y56795D01*
X271850Y57370D01*
X271466Y59303D01*
X270371Y60941D01*
X268733Y62036D01*
X266800Y62420D01*
D02*
G37*
G36*
X304900Y64430D02*
X302967Y64046D01*
X301329Y62951D01*
X300234Y61313D01*
X299850Y59380D01*
X300234Y57448D01*
X301329Y55809D01*
X301817Y55483D01*
Y52650D01*
X301000D01*
X299834Y52166D01*
X299350Y51000D01*
Y38000D01*
X299834Y36834D01*
X301000Y36350D01*
X319000D01*
X320166Y36834D01*
X320650Y38000D01*
Y51000D01*
X320166Y52166D01*
X319000Y52650D01*
X307983D01*
Y55483D01*
X308471Y55809D01*
X309566Y57448D01*
X309950Y59380D01*
X309566Y61313D01*
X308471Y62951D01*
X306833Y64046D01*
X304900Y64430D01*
D02*
G37*
G36*
X391477Y48885D02*
X388523D01*
X388147Y48810D01*
X387765D01*
X384867Y48233D01*
X384513Y48087D01*
X384138Y48012D01*
X381408Y46882D01*
X381090Y46669D01*
X380737Y46523D01*
X378280Y44881D01*
X378009Y44611D01*
X377691Y44398D01*
X375602Y42309D01*
X375389Y41991D01*
X375119Y41720D01*
X373477Y39263D01*
X373331Y38910D01*
X373118Y38592D01*
X371987Y35862D01*
X371913Y35487D01*
X371766Y35133D01*
X371190Y32235D01*
Y31853D01*
X371115Y31477D01*
Y28523D01*
X371190Y28147D01*
Y27765D01*
X371766Y24867D01*
X371913Y24513D01*
X371987Y24138D01*
X373118Y21408D01*
X373331Y21090D01*
X373477Y20737D01*
X375119Y18280D01*
X375389Y18009D01*
X375602Y17691D01*
X377691Y15602D01*
X378009Y15389D01*
X378280Y15119D01*
X380737Y13477D01*
X381090Y13331D01*
X381408Y13118D01*
X384138Y11988D01*
X384513Y11913D01*
X384867Y11766D01*
X387765Y11190D01*
X388147D01*
X388523Y11115D01*
X391477D01*
X391853Y11190D01*
X392235D01*
X395133Y11766D01*
X395487Y11913D01*
X395862Y11988D01*
X398592Y13118D01*
X398910Y13331D01*
X399263Y13477D01*
X401720Y15119D01*
X401991Y15389D01*
X402309Y15602D01*
X404398Y17691D01*
X404611Y18009D01*
X404881Y18280D01*
X406523Y20737D01*
X406669Y21090D01*
X406882Y21408D01*
X408013Y24138D01*
X408087Y24513D01*
X408233Y24867D01*
X408810Y27765D01*
Y28147D01*
X408885Y28523D01*
Y31477D01*
X408810Y31853D01*
Y32235D01*
X408233Y35133D01*
X408087Y35487D01*
X408013Y35862D01*
X406882Y38592D01*
X406669Y38910D01*
X406523Y39263D01*
X404881Y41720D01*
X404611Y41991D01*
X404398Y42309D01*
X402309Y44398D01*
X401991Y44611D01*
X401720Y44881D01*
X399263Y46523D01*
X398910Y46669D01*
X398592Y46882D01*
X395862Y48012D01*
X395487Y48087D01*
X395133Y48233D01*
X392235Y48810D01*
X391853D01*
X391477Y48885D01*
D02*
G37*
G36*
X31477D02*
X28523D01*
X28147Y48810D01*
X27765D01*
X24867Y48233D01*
X24513Y48087D01*
X24138Y48012D01*
X21408Y46882D01*
X21090Y46669D01*
X20737Y46523D01*
X18280Y44881D01*
X18009Y44611D01*
X17691Y44398D01*
X15602Y42309D01*
X15389Y41991D01*
X15119Y41720D01*
X13477Y39263D01*
X13331Y38910D01*
X13118Y38592D01*
X11988Y35862D01*
X11913Y35487D01*
X11766Y35133D01*
X11190Y32235D01*
Y31853D01*
X11115Y31477D01*
Y28523D01*
X11190Y28147D01*
Y27765D01*
X11766Y24867D01*
X11913Y24513D01*
X11988Y24138D01*
X13118Y21408D01*
X13331Y21090D01*
X13477Y20737D01*
X15119Y18280D01*
X15389Y18009D01*
X15602Y17691D01*
X17691Y15602D01*
X18009Y15389D01*
X18280Y15119D01*
X20737Y13477D01*
X21090Y13331D01*
X21408Y13118D01*
X24138Y11988D01*
X24513Y11913D01*
X24867Y11766D01*
X27765Y11190D01*
X28147D01*
X28523Y11115D01*
X31477D01*
X31853Y11190D01*
X32235D01*
X35133Y11766D01*
X35487Y11913D01*
X35862Y11988D01*
X38592Y13118D01*
X38910Y13331D01*
X39263Y13477D01*
X41720Y15119D01*
X41991Y15389D01*
X42309Y15602D01*
X44398Y17691D01*
X44611Y18009D01*
X44881Y18280D01*
X46523Y20737D01*
X46669Y21090D01*
X46882Y21408D01*
X48012Y24138D01*
X48087Y24513D01*
X48233Y24867D01*
X48810Y27765D01*
Y28147D01*
X48885Y28523D01*
Y31477D01*
X48810Y31853D01*
Y32235D01*
X48233Y35133D01*
X48087Y35487D01*
X48012Y35862D01*
X46882Y38592D01*
X46669Y38910D01*
X46523Y39263D01*
X44881Y41720D01*
X44611Y41991D01*
X44398Y42309D01*
X42309Y44398D01*
X41991Y44611D01*
X41720Y44881D01*
X39263Y46523D01*
X38910Y46669D01*
X38592Y46882D01*
X35862Y48012D01*
X35487Y48087D01*
X35133Y48233D01*
X32235Y48810D01*
X31853D01*
X31477Y48885D01*
D02*
G37*
G36*
X261720Y27600D02*
X259788Y27216D01*
X258149Y26121D01*
X257054Y24483D01*
X256670Y22550D01*
X257054Y20617D01*
X258149Y18979D01*
X259788Y17884D01*
X260781Y17687D01*
X265869Y12599D01*
X267200Y11710D01*
X268770Y11397D01*
X268850D01*
Y9170D01*
X269334Y8004D01*
X270500Y7520D01*
X288500D01*
X289666Y8004D01*
X290150Y9170D01*
Y11397D01*
X299350D01*
Y9000D01*
X299834Y7834D01*
X301000Y7350D01*
X319000D01*
X320166Y7834D01*
X320650Y9000D01*
Y11397D01*
X329350D01*
Y9000D01*
X329834Y7834D01*
X331000Y7350D01*
X349000D01*
X350166Y7834D01*
X350650Y9000D01*
Y22000D01*
X350166Y23166D01*
X349000Y23650D01*
X331000D01*
X329834Y23166D01*
X329350Y22000D01*
Y19603D01*
X320650D01*
Y22000D01*
X320166Y23166D01*
X319000Y23650D01*
X301000D01*
X299834Y23166D01*
X299350Y22000D01*
Y19603D01*
X290150D01*
Y22170D01*
X289666Y23336D01*
X288500Y23820D01*
X270500D01*
X269334Y23336D01*
X269099Y22770D01*
X267677Y22395D01*
X266583Y23489D01*
X266386Y24483D01*
X265291Y26121D01*
X263653Y27216D01*
X261720Y27600D01*
D02*
G37*
%LPD*%
G36*
X180000Y835000D02*
X162000D01*
X162000Y940000D01*
X180000D01*
X180000Y835000D01*
D02*
G37*
G36*
X345000Y405000D02*
X285000D01*
Y615000D01*
X345000D01*
Y405000D01*
D02*
G37*
D13*
X286750Y226750D02*
X300000Y240000D01*
X207500Y226750D02*
X286750D01*
X204250Y230000D02*
X206750Y227500D01*
X176250Y227000D02*
X179250Y230000D01*
X204250D01*
X206750Y227500D02*
X207500Y226750D01*
X185000Y127500D02*
X194250Y136750D01*
Y216500D01*
D16*
X268770Y15500D02*
X310000D01*
X261720Y22550D02*
X268770Y15500D01*
X310000D02*
X340000D01*
D27*
X312000Y1199000D02*
D03*
X341000D02*
D03*
D36*
X340000Y44500D02*
D03*
Y15500D02*
D03*
X310000Y44500D02*
D03*
Y15500D02*
D03*
X279500Y44670D02*
D03*
Y15670D02*
D03*
D113*
X282500Y1266250D02*
X285501D01*
X304900Y1285649D01*
X266800Y57370D02*
X279500Y44670D01*
X294750Y1183500D02*
X311750Y1200500D01*
X370220Y1372500D02*
Y1441780D01*
X355000Y1457000D02*
X370220Y1441780D01*
X223200Y1482000D02*
Y1483200D01*
X304900Y59380D02*
X306170Y58110D01*
X304900Y49220D02*
X309450Y44670D01*
X304900Y49220D02*
Y59380D01*
X340500Y45000D02*
X357500D01*
X340000Y44500D02*
X340500Y45000D01*
X304900Y1285649D02*
Y1328580D01*
X325220Y1348900D01*
X368820D01*
X370220Y1347500D01*
X279750Y1183500D02*
X294750D01*
X355000Y1457000D02*
Y1489562D01*
X223200Y1483200D02*
X234500Y1494500D01*
X350062D01*
X355000Y1489562D01*
X123500Y213250D02*
X134250D01*
X116000Y220750D02*
X123500Y213250D01*
X116000Y220750D02*
Y251000D01*
X138757Y190509D02*
Y208743D01*
X134250Y213250D02*
X138757Y208743D01*
D117*
X74750Y1296700D02*
D03*
Y1398300D02*
D03*
D118*
X125550Y1347500D02*
D03*
Y1322100D02*
D03*
D119*
X410000Y246390D02*
D03*
Y195590D02*
D03*
X223200Y1482000D02*
D03*
X248600D02*
D03*
X274000D02*
D03*
D120*
X333800Y195590D02*
D03*
Y220990D02*
D03*
Y246390D02*
D03*
X370220Y1322500D02*
D03*
Y1347500D02*
D03*
Y1372500D02*
D03*
D121*
X337220Y1388500D02*
D03*
Y1306500D02*
D03*
D122*
X315000Y590000D02*
D03*
Y985000D02*
D03*
X105000Y590000D02*
D03*
Y985000D02*
D03*
D123*
X315000Y430000D02*
D03*
Y1145000D02*
D03*
X105000Y430000D02*
D03*
Y1145000D02*
D03*
D124*
X299400Y1482000D02*
D03*
D125*
X245150Y27730D02*
D03*
X158770Y27630D02*
D03*
X245150Y65730D02*
D03*
X158750D02*
D03*
D126*
X282500Y1266250D02*
D03*
X142250Y238000D02*
D03*
Y227000D02*
D03*
X131250Y238000D02*
D03*
Y227000D02*
D03*
X300000Y240000D02*
D03*
X176250Y227000D02*
D03*
X194250Y216500D02*
D03*
X206750Y227500D02*
D03*
X171000Y848000D02*
D03*
Y870000D02*
D03*
Y893000D02*
D03*
Y915000D02*
D03*
Y931000D02*
D03*
X261720Y22550D02*
D03*
X266800Y57370D02*
D03*
X304900Y59380D02*
D03*
X130750Y180500D02*
D03*
Y200500D02*
D03*
X125750Y190500D02*
D03*
X357500Y45000D02*
D03*
X185000Y127500D02*
D03*
X279750Y1183500D02*
D03*
X160000Y169500D02*
D03*
X160400Y158250D02*
D03*
X47500Y151750D02*
D03*
X63250D02*
D03*
X78250D02*
D03*
X109500Y127000D02*
D03*
X53000Y236500D02*
D03*
X116000Y251000D02*
D03*
X294500Y50500D02*
D03*
X354750Y94414D02*
D03*
X368500Y136500D02*
D03*
X358986Y121750D02*
D03*
X345218D02*
D03*
X276850Y126000D02*
D03*
X288722Y126250D02*
D03*
X138757Y190509D02*
D03*
D127*
X324500Y55000D02*
D03*
X222250Y183250D02*
D03*
X357000Y901000D02*
D03*
X250500Y895250D02*
D03*
X200000Y784500D02*
D03*
X256500Y816250D02*
D03*
X356000Y818250D02*
D03*
X331000Y715000D02*
D03*
X262500Y716500D02*
D03*
X114500Y719250D02*
D03*
X115000Y786500D02*
D03*
X113750Y870000D02*
D03*
X210000Y707000D02*
D03*
Y723000D02*
D03*
X200000Y900000D02*
D03*
X193000Y915000D02*
D03*
Y931000D02*
D03*
X260750Y1334750D02*
D03*
X261000Y1313750D02*
D03*
X339000Y1333000D02*
D03*
X339250Y1364500D02*
D03*
X301000Y1354500D02*
D03*
X286500Y1323250D02*
D03*
X319500Y1278250D02*
D03*
X343750Y1182500D02*
D03*
X357750Y1182250D02*
D03*
X193500Y1310250D02*
D03*
X254250Y1257250D02*
D03*
X248750Y1219500D02*
D03*
X174750Y1221250D02*
D03*
X109250Y1249250D02*
D03*
X109000Y1215500D02*
D03*
X174500Y1247750D02*
D03*
X140250Y1249750D02*
D03*
X20750Y1267750D02*
D03*
X12250Y1181250D02*
D03*
X18500Y384250D02*
D03*
Y313500D02*
D03*
X144250Y1285250D02*
D03*
X191000Y1345750D02*
D03*
X152500Y1381000D02*
D03*
X232750Y1388000D02*
D03*
X282750Y1379750D02*
D03*
X306000Y1411750D02*
D03*
X326000Y1456707D02*
D03*
X263250Y1458250D02*
D03*
X216500Y1406000D02*
D03*
X156750Y1433000D02*
D03*
X171500Y1480607D02*
D03*
X125000Y1428500D02*
D03*
X89000Y1337000D02*
D03*
X199250Y1276000D02*
D03*
X244250Y1324000D02*
D03*
X216500Y1247750D02*
D03*
X24750Y1416750D02*
D03*
X86750Y1464750D02*
D03*
X396750Y1419500D02*
D03*
X348785Y1423000D02*
D03*
X399000Y1384750D02*
D03*
X399500Y1272650D02*
D03*
X398000Y1334250D02*
D03*
X237500Y211000D02*
D03*
X215250Y210750D02*
D03*
X237250Y182250D02*
D03*
X207300Y182750D02*
D03*
X252700Y242849D02*
D03*
X235750Y242613D02*
D03*
X226000Y325750D02*
D03*
X224250Y301750D02*
D03*
X233250Y284583D02*
D03*
X235500Y262930D02*
D03*
X285500Y308500D02*
D03*
X213000Y152500D02*
D03*
X120250Y307250D02*
D03*
X365500Y76250D02*
D03*
X267000Y146750D02*
D03*
X324500Y146000D02*
D03*
X207250Y112487D02*
D03*
X194750Y112078D02*
D03*
X181000Y111622D02*
D03*
X173750Y97000D02*
D03*
X174000Y51500D02*
D03*
X230250D02*
D03*
X245250Y98000D02*
D03*
X230750Y98750D02*
D03*
X66000Y120750D02*
D03*
X86334Y101000D02*
D03*
X100500Y78250D02*
D03*
X118101Y62000D02*
D03*
X138000Y90169D02*
D03*
X81746Y39000D02*
D03*
X18009Y102400D02*
D03*
Y207736D02*
D03*
X249750Y308750D02*
D03*
X176750Y378500D02*
D03*
X123500Y379000D02*
D03*
X242000Y394000D02*
D03*
X313000Y390750D02*
D03*
X281500Y210250D02*
D03*
X321750Y261750D02*
D03*
X336000Y349500D02*
D03*
X360566Y307000D02*
D03*
X377250Y265847D02*
D03*
X368500Y209750D02*
D03*
X396500Y158850D02*
D03*
X406000Y383199D02*
D03*
Y333000D02*
D03*
X82750Y318834D02*
D03*
X65122Y282500D02*
D03*
D128*
X325220Y84780D02*
D03*
X317600Y89860D02*
D03*
X325220Y94940D02*
D03*
X317600Y100020D02*
D03*
M02*
