G04*
G04 #@! TF.GenerationSoftware,Altium Limited,Altium Designer,20.2.7 (254)*
G04*
G04 Layer_Color=32896*
%FSLAX44Y44*%
%MOMM*%
G71*
G04*
G04 #@! TF.SameCoordinates,09A48B07-2891-40CF-AB4D-50A5A77D63B2*
G04*
G04*
G04 #@! TF.FilePolarity,Positive*
G04*
G01*
G75*
%ADD13C,0.2540*%
%ADD130C,0.1500*%
%ADD131C,0.1524*%
D13*
X0Y-88000D02*
X15240Y-82920D01*
X0Y-88000D02*
X15240Y-93080D01*
X404760D02*
X420000Y-88000D01*
X404760Y-82920D02*
X420000Y-88000D01*
X0D02*
X167593D01*
X244279D02*
X420000D01*
X0Y-90540D02*
Y-3290D01*
X420000Y-90540D02*
Y-3290D01*
X-32000Y1347500D02*
X-26920Y1332260D01*
X-37080D02*
X-32000Y1347500D01*
X-37080Y15240D02*
X-32000Y0D01*
X-26920Y15240D01*
X-32000Y714377D02*
Y1347500D01*
Y0D02*
Y624995D01*
X-34540Y1347500D02*
X113502D01*
X-34540Y0D02*
X-3290D01*
X502000Y1347500D02*
X507080Y1332260D01*
X496920D02*
X502000Y1347500D01*
X496920Y15240D02*
X502000Y0D01*
X507080Y15240D01*
X502000Y714377D02*
Y1347500D01*
Y0D02*
Y624995D01*
X383268Y1347500D02*
X504540D01*
X423290Y0D02*
X504540D01*
X455000Y220990D02*
X460080Y205750D01*
X449920D02*
X455000Y220990D01*
X449920Y15240D02*
X455000Y0D01*
X460080Y15240D01*
X455000Y143504D02*
Y220990D01*
Y0D02*
Y69358D01*
X346848Y220990D02*
X457540D01*
X423290Y0D02*
X457540D01*
D130*
X30000Y1440000D02*
G03*
X60000Y1470000I0J30000D01*
G01*
X360000D02*
G03*
X390000Y1440000I30000J0D01*
G01*
Y1255000D02*
G03*
X390000Y1195000I0J-30000D01*
G01*
X30000D02*
G03*
X30000Y1255000I0J30000D01*
G01*
Y320000D02*
G03*
X30000Y380000I0J30000D01*
G01*
X390000Y390000D02*
G03*
X390000Y330000I0J-30000D01*
G01*
Y60000D02*
G03*
X360000Y30000I0J-30000D01*
G01*
X60000D02*
G03*
X30000Y60000I-30000J0D01*
G01*
X45000Y30000D02*
G03*
X45000Y30000I-15000J0D01*
G01*
X405018D02*
G03*
X405018Y30000I-15018J0D01*
G01*
Y360000D02*
G03*
X405018Y360000I-15018J0D01*
G01*
X45018Y350000D02*
G03*
X45018Y350000I-15018J0D01*
G01*
Y1225000D02*
G03*
X45018Y1225000I-15018J0D01*
G01*
X405018D02*
G03*
X405018Y1225000I-15018J0D01*
G01*
Y1470000D02*
G03*
X405018Y1470000I-15018J0D01*
G01*
X45000D02*
G03*
X45000Y1470000I-15000J0D01*
G01*
X315000Y403000D02*
Y1173000D01*
X105000Y403000D02*
Y1173000D01*
X0Y60000D02*
X30000D01*
X60000Y0D02*
Y30000D01*
X360000Y0D02*
Y30000D01*
X390000Y60000D02*
X420000D01*
X390000Y330000D02*
X420000D01*
X390000Y390000D02*
X420000D01*
X0Y380000D02*
X30000D01*
X0Y320000D02*
X30000D01*
X0Y1195000D02*
X30000D01*
X0Y1255000D02*
X30000D01*
X390000Y1195000D02*
X420000D01*
X390000Y1255000D02*
X420000D01*
X360000Y1470000D02*
Y1500000D01*
X360000Y1470000D02*
X360000D01*
X390000Y1440000D02*
X420000D01*
X0D02*
X30000D01*
X60000Y1470000D02*
Y1500000D01*
X60000Y1470000D02*
X60000D01*
X0Y0D02*
Y1500000D01*
Y0D02*
X420000D01*
Y1500000D01*
X0D02*
X420000D01*
D131*
X179275Y-97142D02*
Y-81906D01*
X171657Y-89524D01*
X181814D01*
X197049Y-97142D02*
X186892D01*
X197049Y-86985D01*
Y-84446D01*
X194510Y-81906D01*
X189431D01*
X186892Y-84446D01*
X202127Y-97142D02*
Y-94602D01*
X204666D01*
Y-97142D01*
X202127D01*
X214823Y-84446D02*
X217362Y-81906D01*
X222441D01*
X224980Y-84446D01*
Y-94602D01*
X222441Y-97142D01*
X217362D01*
X214823Y-94602D01*
Y-84446D01*
X230058D02*
X232597Y-81906D01*
X237676D01*
X240215Y-84446D01*
Y-94602D01*
X237676Y-97142D01*
X232597D01*
X230058Y-94602D01*
Y-84446D01*
X-22859Y629059D02*
Y634137D01*
Y631598D01*
X-38094D01*
X-35554Y629059D01*
Y641755D02*
X-38094Y644294D01*
Y649373D01*
X-35554Y651912D01*
X-33015D01*
X-30476Y649373D01*
Y646833D01*
Y649373D01*
X-27937Y651912D01*
X-25398D01*
X-22859Y649373D01*
Y644294D01*
X-25398Y641755D01*
X-22859Y664608D02*
X-38094D01*
X-30476Y656990D01*
Y667147D01*
X-22859Y672225D02*
X-25398D01*
Y674764D01*
X-22859D01*
Y672225D01*
X-38094Y684921D02*
Y695078D01*
X-35554D01*
X-25398Y684921D01*
X-22859D01*
X-38094Y710313D02*
Y700156D01*
X-30476D01*
X-33015Y705235D01*
Y707774D01*
X-30476Y710313D01*
X-25398D01*
X-22859Y707774D01*
Y702695D01*
X-25398Y700156D01*
X511142Y629059D02*
Y634137D01*
Y631598D01*
X495906D01*
X498446Y629059D01*
Y641755D02*
X495906Y644294D01*
Y649373D01*
X498446Y651912D01*
X500985D01*
X503524Y649373D01*
Y646833D01*
Y649373D01*
X506063Y651912D01*
X508602D01*
X511142Y649373D01*
Y644294D01*
X508602Y641755D01*
X511142Y664608D02*
X495906D01*
X503524Y656990D01*
Y667147D01*
X511142Y672225D02*
X508602D01*
Y674764D01*
X511142D01*
Y672225D01*
X495906Y684921D02*
Y695078D01*
X498446D01*
X508602Y684921D01*
X511142D01*
X495906Y710313D02*
Y700156D01*
X503524D01*
X500985Y705235D01*
Y707774D01*
X503524Y710313D01*
X508602D01*
X511142Y707774D01*
Y702695D01*
X508602Y700156D01*
X464142Y83578D02*
Y73422D01*
X453985Y83578D01*
X451446D01*
X448907Y81039D01*
Y75961D01*
X451446Y73422D01*
X464142Y98813D02*
Y88657D01*
X453985Y98813D01*
X451446D01*
X448907Y96274D01*
Y91196D01*
X451446Y88657D01*
X464142Y103892D02*
X461602D01*
Y106431D01*
X464142D01*
Y103892D01*
Y116588D02*
Y121666D01*
Y119127D01*
X448907D01*
X451446Y116588D01*
Y129284D02*
X448907Y131823D01*
Y136901D01*
X451446Y139440D01*
X461602D01*
X464142Y136901D01*
Y131823D01*
X461602Y129284D01*
X451446D01*
M02*
