G04*
G04 #@! TF.GenerationSoftware,Altium Limited,Altium Designer,20.2.7 (254)*
G04*
G04 Layer_Color=8388736*
%FSLAX44Y44*%
%MOMM*%
G71*
G04*
G04 #@! TF.SameCoordinates,09A48B07-2891-40CF-AB4D-50A5A77D63B2*
G04*
G04*
G04 #@! TF.FilePolarity,Negative*
G04*
G01*
G75*
G04:AMPARAMS|DCode=61|XSize=0.2mm|YSize=0.2mm|CornerRadius=0.05mm|HoleSize=0mm|Usage=FLASHONLY|Rotation=165.000|XOffset=0mm|YOffset=0mm|HoleType=Round|Shape=RoundedRectangle|*
%AMROUNDEDRECTD61*
21,1,0.2000,0.1000,0,0,165.0*
21,1,0.1000,0.2000,0,0,165.0*
1,1,0.1000,-0.0354,0.0612*
1,1,0.1000,0.0612,0.0354*
1,1,0.1000,0.0354,-0.0612*
1,1,0.1000,-0.0612,-0.0354*
%
%ADD61ROUNDEDRECTD61*%
%ADD62R,1.1016X1.0016*%
%ADD63R,1.3716X0.8636*%
%ADD64R,2.6416X2.7686*%
%ADD65R,1.4016X1.9016*%
%ADD66R,1.1016X1.1016*%
%ADD67R,1.4016X1.6016*%
%ADD68R,1.7016X3.3016*%
%ADD69R,1.0016X1.1016*%
%ADD70R,0.5016X0.9516*%
%ADD71R,1.1016X1.1016*%
%ADD72R,1.6016X0.7016*%
G04:AMPARAMS|DCode=73|XSize=1.7016mm|YSize=3.3016mm|CornerRadius=0mm|HoleSize=0mm|Usage=FLASHONLY|Rotation=45.000|XOffset=0mm|YOffset=0mm|HoleType=Round|Shape=Rectangle|*
%AMROTATEDRECTD73*
4,1,4,0.5657,-1.7689,-1.7689,0.5657,-0.5657,1.7689,1.7689,-0.5657,0.5657,-1.7689,0.0*
%
%ADD73ROTATEDRECTD73*%

%ADD74R,1.9016X1.4016*%
%ADD75R,0.9516X0.5016*%
%ADD76R,2.0516X2.4016*%
%ADD77R,0.7016X1.4016*%
%ADD78R,2.8016X1.4016*%
%ADD79R,3.3016X1.7016*%
G04:AMPARAMS|DCode=80|XSize=2.0016mm|YSize=3.3016mm|CornerRadius=0mm|HoleSize=0mm|Usage=FLASHONLY|Rotation=180.000|XOffset=0mm|YOffset=0mm|HoleType=Round|Shape=Octagon|*
%AMOCTAGOND80*
4,1,8,0.5004,-1.6508,-0.5004,-1.6508,-1.0008,-1.1504,-1.0008,1.1504,-0.5004,1.6508,0.5004,1.6508,1.0008,1.1504,1.0008,-1.1504,0.5004,-1.6508,0.0*
%
%ADD80OCTAGOND80*%

%ADD81R,0.7016X1.5016*%
%ADD82R,0.7016X1.9016*%
%ADD83R,0.6016X0.5016*%
%ADD84R,0.6016X0.8516*%
%ADD85R,1.9016X1.9016*%
%ADD86R,1.2016X3.3016*%
%ADD87R,3.3016X1.2016*%
%ADD88R,1.0016X1.2516*%
%ADD89R,0.9016X1.2516*%
%ADD90R,0.8016X1.2516*%
%ADD91R,0.8636X1.3716*%
%ADD92R,2.7686X2.6416*%
%ADD93R,2.4016X2.0516*%
%ADD94R,2.5516X2.5516*%
%ADD95O,1.0516X0.3516*%
%ADD96O,0.3516X1.0516*%
%ADD97R,1.6816X2.4416*%
%ADD98R,0.9516X0.3516*%
%ADD99C,3.6016*%
%ADD100C,1.9016*%
%ADD101C,1.6016*%
%ADD102C,2.1016*%
%ADD103R,3.0016X2.6016*%
%ADD104R,6.1016X5.1016*%
%ADD105R,4.1016X5.1016*%
%ADD106R,1.6016X1.6016*%
%ADD107O,1.1016X1.8016*%
%ADD108C,0.7874*%
%ADD109C,0.6096*%
G36*
X53500Y266000D02*
Y249000D01*
X46000D01*
Y234000D01*
X29000D01*
Y249000D01*
X21500D01*
Y266000D01*
X53500D01*
D02*
G37*
G36*
X29000Y296000D02*
Y311000D01*
X46000D01*
Y296000D01*
X53500D01*
Y279000D01*
X21500D01*
Y296000D01*
X29000D01*
D02*
G37*
G36*
X101500Y326500D02*
X86500D01*
Y343500D01*
X101500D01*
Y351000D01*
X118500D01*
Y319000D01*
X101500D01*
Y326500D01*
D02*
G37*
G36*
X131500Y351000D02*
X148500D01*
Y343500D01*
X163500D01*
Y326500D01*
X148500D01*
Y319000D01*
X131500D01*
Y351000D01*
D02*
G37*
D61*
X121400Y244750D02*
D03*
X125263Y243715D02*
D03*
D62*
X139750Y288000D02*
D03*
Y271000D02*
D03*
X154750Y271000D02*
D03*
Y288000D02*
D03*
X124750Y288000D02*
D03*
Y271000D02*
D03*
X313250Y221500D02*
D03*
Y238500D02*
D03*
X98750Y230000D02*
D03*
Y213000D02*
D03*
X249000Y1403230D02*
D03*
Y1386230D02*
D03*
X282000Y1353500D02*
D03*
Y1336500D02*
D03*
X208000Y1329500D02*
D03*
Y1312500D02*
D03*
X279000Y780500D02*
D03*
Y763500D02*
D03*
X215000Y885500D02*
D03*
Y902500D02*
D03*
X151000Y847500D02*
D03*
Y864500D02*
D03*
X186790Y99630D02*
D03*
Y82630D02*
D03*
X203300Y99630D02*
D03*
Y82630D02*
D03*
X352500Y59000D02*
D03*
Y76000D02*
D03*
X293250Y1183500D02*
D03*
Y1200500D02*
D03*
X266000Y1387500D02*
D03*
Y1370500D02*
D03*
X99750Y244000D02*
D03*
Y261000D02*
D03*
D63*
X177750Y281995D02*
D03*
D64*
Y258500D02*
D03*
D65*
X210250Y326500D02*
D03*
X181250D02*
D03*
X210250Y303500D02*
D03*
X181250D02*
D03*
X146250Y163500D02*
D03*
X175250D02*
D03*
X95250Y128500D02*
D03*
X124250D02*
D03*
X324500Y1436000D02*
D03*
X295500D02*
D03*
X214500Y1383000D02*
D03*
X185500D02*
D03*
X239850Y1257000D02*
D03*
X268850D02*
D03*
D66*
X216750Y284500D02*
D03*
X200750D02*
D03*
X163500Y182500D02*
D03*
X179500D02*
D03*
X107750Y108500D02*
D03*
X123750D02*
D03*
X311000Y1457000D02*
D03*
X295000D02*
D03*
X244000Y1458000D02*
D03*
X228000D02*
D03*
X254350Y1237000D02*
D03*
X270350D02*
D03*
D67*
X136250Y306500D02*
D03*
X153250D02*
D03*
X88250Y302500D02*
D03*
X105250D02*
D03*
X88250Y279500D02*
D03*
X105250D02*
D03*
X80250Y216500D02*
D03*
X63250D02*
D03*
X66250Y256500D02*
D03*
X83250D02*
D03*
D68*
X265000Y285000D02*
D03*
Y335000D02*
D03*
X194250Y1247074D02*
D03*
Y1197074D02*
D03*
D69*
X325750Y281500D02*
D03*
X342750D02*
D03*
X180000Y198250D02*
D03*
X163000D02*
D03*
X65250Y238500D02*
D03*
X82250D02*
D03*
X232500Y1370500D02*
D03*
X249500D02*
D03*
X217450Y1277000D02*
D03*
X234450D02*
D03*
X267500D02*
D03*
X250500D02*
D03*
X334990Y65730D02*
D03*
X317990D02*
D03*
X271000Y91130D02*
D03*
X288000D02*
D03*
X271000Y73350D02*
D03*
X288000D02*
D03*
D70*
X312750Y203750D02*
D03*
Y180250D02*
D03*
X160250Y1338573D02*
D03*
Y1362074D02*
D03*
X211000Y944750D02*
D03*
Y921250D02*
D03*
X210000Y676250D02*
D03*
Y699750D02*
D03*
D71*
X148000Y182750D02*
D03*
Y198750D02*
D03*
X93750Y149500D02*
D03*
Y165500D02*
D03*
X280500Y1309250D02*
D03*
Y1293250D02*
D03*
X208000Y1345500D02*
D03*
Y1361500D02*
D03*
X144000Y896000D02*
D03*
Y880000D02*
D03*
X376020Y127070D02*
D03*
Y111070D02*
D03*
X264260Y129610D02*
D03*
Y113610D02*
D03*
X345250Y1196500D02*
D03*
Y1212500D02*
D03*
D72*
X170250Y122000D02*
D03*
Y141000D02*
D03*
X151250Y131500D02*
D03*
D73*
X62072Y90928D02*
D03*
X97428Y55572D02*
D03*
D74*
X74750Y137000D02*
D03*
Y166000D02*
D03*
X50750Y137000D02*
D03*
Y166000D02*
D03*
X299750Y1293500D02*
D03*
Y1264500D02*
D03*
X210000Y377500D02*
D03*
Y406500D02*
D03*
X354430Y136110D02*
D03*
Y107110D02*
D03*
X285850Y139920D02*
D03*
Y110920D02*
D03*
D75*
X319595Y1350323D02*
D03*
X343095D02*
D03*
X218220Y83510D02*
D03*
X241720D02*
D03*
D76*
X249750Y1432000D02*
D03*
X222250D02*
D03*
D77*
X264050Y1353500D02*
D03*
X251350D02*
D03*
X238650D02*
D03*
X225950D02*
D03*
X264050Y1294500D02*
D03*
X251350D02*
D03*
X238650D02*
D03*
X225950D02*
D03*
D78*
X176250Y1295500D02*
D03*
Y1324500D02*
D03*
D79*
X85000Y1229956D02*
D03*
X135000D02*
D03*
D80*
X339750Y1274000D02*
D03*
X180000Y1431000D02*
D03*
D81*
X354750Y1247000D02*
D03*
X324750D02*
D03*
X165000Y1458000D02*
D03*
X195000D02*
D03*
D82*
X339750Y1249000D02*
D03*
X180000Y1456000D02*
D03*
D83*
X184500Y884300D02*
D03*
Y890300D02*
D03*
X157500Y884300D02*
D03*
Y890300D02*
D03*
D84*
Y898050D02*
D03*
X184500D02*
D03*
D85*
X171000Y892000D02*
D03*
D86*
X200250Y259500D02*
D03*
X221250D02*
D03*
D87*
X118750Y147000D02*
D03*
Y168000D02*
D03*
D88*
X229450Y65730D02*
D03*
X174450D02*
D03*
D89*
X217150D02*
D03*
X186750D02*
D03*
D90*
X196950D02*
D03*
X206950D02*
D03*
D91*
X113245Y190500D02*
D03*
D92*
X89750D02*
D03*
D93*
X319000Y1215750D02*
D03*
Y1188250D02*
D03*
D94*
X136750Y232500D02*
D03*
D95*
X117000Y220000D02*
D03*
Y225000D02*
D03*
Y230000D02*
D03*
Y235000D02*
D03*
Y240000D02*
D03*
Y245000D02*
D03*
X156500D02*
D03*
Y240000D02*
D03*
Y235000D02*
D03*
Y230000D02*
D03*
Y225000D02*
D03*
Y220000D02*
D03*
D96*
X124250Y252250D02*
D03*
X129250D02*
D03*
X134250D02*
D03*
X139250D02*
D03*
X144250D02*
D03*
X149250D02*
D03*
Y212750D02*
D03*
X144250D02*
D03*
X139250D02*
D03*
X134250D02*
D03*
X129250D02*
D03*
X124250D02*
D03*
D97*
X321410Y92400D02*
D03*
D98*
X335560Y82400D02*
D03*
Y87400D02*
D03*
Y92400D02*
D03*
Y97400D02*
D03*
Y102400D02*
D03*
X307260Y82400D02*
D03*
Y87400D02*
D03*
Y92400D02*
D03*
Y97400D02*
D03*
Y102400D02*
D03*
D99*
X74750Y1296700D02*
D03*
Y1398300D02*
D03*
D100*
X125550Y1347500D02*
D03*
Y1322100D02*
D03*
D101*
X410000Y246390D02*
D03*
Y195590D02*
D03*
X223200Y1482000D02*
D03*
X248600D02*
D03*
X274000D02*
D03*
D102*
X333800Y195590D02*
D03*
Y220990D02*
D03*
Y246390D02*
D03*
X370220Y1322500D02*
D03*
Y1347500D02*
D03*
Y1372500D02*
D03*
D103*
X337220Y1388500D02*
D03*
Y1306500D02*
D03*
D104*
X315000Y590000D02*
D03*
Y985000D02*
D03*
X105000Y590000D02*
D03*
Y985000D02*
D03*
D105*
X315000Y430000D02*
D03*
Y1145000D02*
D03*
X105000Y430000D02*
D03*
Y1145000D02*
D03*
D106*
X299400Y1482000D02*
D03*
D107*
X245150Y27730D02*
D03*
X158770Y27630D02*
D03*
X245150Y65730D02*
D03*
X158750D02*
D03*
D108*
X142250Y238000D02*
D03*
Y227000D02*
D03*
X131250Y238000D02*
D03*
Y227000D02*
D03*
X171000Y893000D02*
D03*
D109*
X325220Y84780D02*
D03*
X317600Y89860D02*
D03*
X325220Y94940D02*
D03*
X317600Y100020D02*
D03*
M02*
