G04*
G04 #@! TF.GenerationSoftware,Altium Limited,Altium Designer,20.2.7 (254)*
G04*
G04 Layer_Color=16711935*
%FSLAX44Y44*%
%MOMM*%
G71*
G04*
G04 #@! TF.SameCoordinates,09A48B07-2891-40CF-AB4D-50A5A77D63B2*
G04*
G04*
G04 #@! TF.FilePolarity,Positive*
G04*
G01*
G75*
%ADD10C,0.1000*%
%ADD14C,0.1270*%
%ADD132R,0.4977X3.0000*%
%ADD133R,3.0000X0.4977*%
D10*
X233000Y1310000D02*
G03*
X233000Y1310000I-5000J0D01*
G01*
X331250Y1261500D02*
G03*
X331250Y1261500I-5000J0D01*
G01*
X198500Y1443500D02*
G03*
X198500Y1443500I-5000J0D01*
G01*
X130250Y221000D02*
G03*
X130250Y221000I-5000J0D01*
G01*
X320410Y98400D02*
G03*
X320410Y98400I-5000J0D01*
G01*
X144500Y271000D02*
Y288000D01*
X135000Y271000D02*
Y288000D01*
X144500D01*
X135000Y271000D02*
X144500D01*
X150000Y271000D02*
Y288000D01*
X159500Y271000D02*
Y288000D01*
X150000Y271000D02*
X159500D01*
X150000Y288000D02*
X159500D01*
X212750Y317500D02*
Y335500D01*
X178750Y317500D02*
Y335500D01*
Y317500D02*
X212750D01*
X178750Y335500D02*
X212750D01*
X217500Y279750D02*
Y289250D01*
X200000Y279750D02*
Y289250D01*
Y279750D02*
X217500D01*
X200000Y289250D02*
X217500D01*
X212750Y294500D02*
Y312500D01*
X178750Y294500D02*
Y312500D01*
Y294500D02*
X212750D01*
X178750Y312500D02*
X212750D01*
X133750Y299250D02*
Y313750D01*
X155750Y299250D02*
Y313750D01*
X133750D02*
X155750D01*
X133750Y299250D02*
X155750D01*
X129500Y271000D02*
Y288000D01*
X120000Y271000D02*
Y288000D01*
X129500D01*
X120000Y271000D02*
X129500D01*
X325750Y286250D02*
X342750D01*
X325750Y276750D02*
X342750D01*
X325750D02*
Y286250D01*
X342750Y276750D02*
Y286250D01*
X308500Y221500D02*
Y238500D01*
X318000Y221500D02*
Y238500D01*
X308500Y221500D02*
X318000D01*
X308500Y238500D02*
X318000D01*
X305750Y201000D02*
X319750D01*
X305750Y183000D02*
X319750D01*
Y201000D01*
X305750Y183000D02*
Y201000D01*
X163000Y193500D02*
X180000D01*
X163000Y203000D02*
X180000D01*
Y193500D02*
Y203000D01*
X163000Y193500D02*
Y203000D01*
X143250Y182000D02*
X152750D01*
X143250Y199500D02*
X152750D01*
X143250Y182000D02*
Y199500D01*
X152750Y182000D02*
Y199500D01*
X162750Y177750D02*
Y187250D01*
X180250Y177750D02*
Y187250D01*
X162750D02*
X180250D01*
X162750Y177750D02*
X180250D01*
X143750Y154500D02*
Y172500D01*
X177750Y154500D02*
Y172500D01*
X143750D02*
X177750D01*
X143750Y154500D02*
X177750D01*
X167750Y116500D02*
Y146500D01*
X153750Y116500D02*
Y146500D01*
Y116500D02*
X167750D01*
X153750Y146500D02*
X167750D01*
X107000Y103750D02*
Y113250D01*
X124500Y103750D02*
Y113250D01*
X107000D02*
X124500D01*
X107000Y103750D02*
X124500D01*
X92750Y119500D02*
Y137500D01*
X126750Y119500D02*
Y137500D01*
X92750D02*
X126750D01*
X92750Y119500D02*
X126750D01*
X89000Y148750D02*
X98500D01*
X89000Y166250D02*
X98500D01*
X89000Y148750D02*
Y166250D01*
X98500Y148750D02*
Y166250D01*
X65750Y134500D02*
X83750D01*
X65750Y168500D02*
X83750D01*
X65750Y134500D02*
Y168500D01*
X83750Y134500D02*
Y168500D01*
X41750Y134500D02*
X59750D01*
X41750Y168500D02*
X59750D01*
X41750Y134500D02*
Y168500D01*
X59750Y134500D02*
Y168500D01*
X85750Y295250D02*
Y309750D01*
X107750Y295250D02*
Y309750D01*
X85750D02*
X107750D01*
X85750Y295250D02*
X107750D01*
X85750Y272250D02*
Y286750D01*
X107750Y272250D02*
Y286750D01*
X85750D02*
X107750D01*
X85750Y272250D02*
X107750D01*
X103500Y213000D02*
Y230000D01*
X94000Y213000D02*
Y230000D01*
X103500D01*
X94000Y213000D02*
X103500D01*
X65250Y243250D02*
X82250D01*
X65250Y233750D02*
X82250D01*
X65250D02*
Y243250D01*
X82250Y233750D02*
Y243250D01*
X322345Y1357323D02*
X340345D01*
X322345Y1343324D02*
X340345D01*
X322345D02*
Y1357323D01*
X340345Y1343324D02*
Y1357323D01*
X311750Y1452250D02*
Y1461750D01*
X294250Y1452250D02*
Y1461750D01*
Y1452250D02*
X311750D01*
X294250Y1461750D02*
X311750D01*
X327000Y1427000D02*
Y1445000D01*
X293000Y1427000D02*
Y1445000D01*
Y1427000D02*
X327000D01*
X293000Y1445000D02*
X327000D01*
X244750Y1453250D02*
Y1462750D01*
X227250Y1453250D02*
Y1462750D01*
Y1453250D02*
X244750D01*
X227250Y1462750D02*
X244750D01*
X217500Y1417000D02*
X254500D01*
X217500Y1447000D02*
X254500D01*
Y1417000D02*
Y1447000D01*
X217500Y1417000D02*
Y1447000D01*
X253750Y1386230D02*
Y1403230D01*
X244250Y1386230D02*
Y1403230D01*
X253750D01*
X244250Y1386230D02*
X253750D01*
X232500Y1375250D02*
X249500D01*
X232500Y1365750D02*
X249500D01*
X232500D02*
Y1375250D01*
X249500Y1365750D02*
Y1375250D01*
X286750Y1336500D02*
Y1353500D01*
X277250Y1336500D02*
Y1353500D01*
X286750D01*
X277250Y1336500D02*
X286750D01*
X290750Y1296000D02*
X308750D01*
X290750Y1262000D02*
X308750D01*
Y1296000D01*
X290750Y1262000D02*
Y1296000D01*
X275750Y1310000D02*
X285250D01*
X275750Y1292500D02*
X285250D01*
Y1310000D01*
X275750Y1292500D02*
Y1310000D01*
X271000Y1301000D02*
Y1347000D01*
X219000Y1301000D02*
Y1347000D01*
X271000D01*
X219000Y1301000D02*
X271000D01*
X203250Y1344750D02*
X212750D01*
X203250Y1362250D02*
X212750D01*
X203250Y1344750D02*
Y1362250D01*
X212750Y1344750D02*
Y1362250D01*
X217000Y1374000D02*
Y1392000D01*
X183000Y1374000D02*
Y1392000D01*
Y1374000D02*
X217000D01*
X183000Y1392000D02*
X217000D01*
X153250Y1341324D02*
Y1359323D01*
X167250Y1341324D02*
Y1359323D01*
X153250Y1341324D02*
X167250D01*
X153250Y1359323D02*
X167250D01*
X212750Y1312500D02*
Y1329500D01*
X203250Y1312500D02*
Y1329500D01*
X212750D01*
X203250Y1312500D02*
X212750D01*
X163050Y1293250D02*
X189450D01*
X163050Y1326750D02*
X189450D01*
X163050Y1293250D02*
Y1326750D01*
X189450Y1293250D02*
Y1326750D01*
X217450Y1281750D02*
X234450D01*
X217450Y1272250D02*
X234450D01*
X217450D02*
Y1281750D01*
X234450Y1272250D02*
Y1281750D01*
X250500Y1272250D02*
X267500D01*
X250500Y1281750D02*
X267500D01*
Y1272250D02*
Y1281750D01*
X250500Y1272250D02*
Y1281750D01*
X253600Y1232250D02*
Y1241750D01*
X271100Y1232250D02*
Y1241750D01*
X253600D02*
X271100D01*
X253600Y1232250D02*
X271100D01*
X362750Y1252000D02*
Y1278000D01*
X316750Y1252000D02*
Y1278000D01*
X362750D01*
X316750Y1252000D02*
X362750D01*
X309750Y1190250D02*
Y1207750D01*
X343250Y1190250D02*
Y1207750D01*
X309750Y1190250D02*
X343250D01*
X309750Y1207750D02*
X343250D01*
X157000Y1427000D02*
Y1453000D01*
X203000Y1427000D02*
Y1453000D01*
X157000Y1427000D02*
X203000D01*
X157000Y1453000D02*
X203000D01*
X204000Y942000D02*
X218000D01*
X204000Y924000D02*
X218000D01*
Y942000D01*
X204000Y924000D02*
Y942000D01*
X203000Y679000D02*
X217000D01*
X203000Y697000D02*
X217000D01*
X203000Y679000D02*
Y697000D01*
X217000Y679000D02*
Y697000D01*
X220970Y76510D02*
Y90510D01*
X238970Y76510D02*
Y90510D01*
X220970D02*
X238970D01*
X220970Y76510D02*
X238970D01*
X283750Y763500D02*
Y780500D01*
X274250Y763500D02*
Y780500D01*
X283750D01*
X274250Y763500D02*
X283750D01*
X210250Y885500D02*
Y902500D01*
X219750Y885500D02*
Y902500D01*
X210250Y885500D02*
X219750D01*
X210250Y902500D02*
X219750D01*
X146250Y847500D02*
Y864500D01*
X155750Y847500D02*
Y864500D01*
X146250Y847500D02*
X155750D01*
X146250Y864500D02*
X155750D01*
X317990Y60980D02*
X334990D01*
X317990Y70480D02*
X334990D01*
Y60980D02*
Y70480D01*
X317990Y60980D02*
Y70480D01*
X271000Y95880D02*
X288000D01*
X271000Y86380D02*
X288000D01*
X271000D02*
Y95880D01*
X288000Y86380D02*
Y95880D01*
X271000Y78100D02*
X288000D01*
X271000Y68600D02*
X288000D01*
X271000D02*
Y78100D01*
X288000Y68600D02*
Y78100D01*
X191540Y82630D02*
Y99630D01*
X182040Y82630D02*
Y99630D01*
X191540D01*
X182040Y82630D02*
X191540D01*
X208050D02*
Y99630D01*
X198550Y82630D02*
Y99630D01*
X208050D01*
X198550Y82630D02*
X208050D01*
X347750Y59000D02*
Y76000D01*
X357250Y59000D02*
Y76000D01*
X347750Y59000D02*
X357250D01*
X347750Y76000D02*
X357250D01*
X288500Y1183500D02*
Y1200500D01*
X298000Y1183500D02*
Y1200500D01*
X288500Y1183500D02*
X298000D01*
X288500Y1200500D02*
X298000D01*
X270750Y1370500D02*
Y1387500D01*
X261250Y1370500D02*
Y1387500D01*
X270750D01*
X261250Y1370500D02*
X270750D01*
X95000Y244000D02*
Y261000D01*
X104500Y244000D02*
Y261000D01*
X95000Y244000D02*
X104500D01*
X95000Y261000D02*
X104500D01*
X201250Y375250D02*
Y408750D01*
X218750Y375250D02*
Y408750D01*
X201250Y375250D02*
X218750D01*
X201250Y408750D02*
X218750D01*
X139250Y896750D02*
X148750D01*
X139250Y879250D02*
X148750D01*
Y896750D01*
X139250Y879250D02*
Y896750D01*
X371270Y127820D02*
X380770D01*
X371270Y110320D02*
X380770D01*
Y127820D01*
X371270Y110320D02*
Y127820D01*
X345430Y138610D02*
X363430D01*
X345430Y104610D02*
X363430D01*
Y138610D01*
X345430Y104610D02*
Y138610D01*
X259510Y130360D02*
X269010D01*
X259510Y112860D02*
X269010D01*
Y130360D01*
X259510Y112860D02*
Y130360D01*
X276850Y142420D02*
X294850D01*
X276850Y108420D02*
X294850D01*
Y142420D01*
X276850Y108420D02*
Y142420D01*
X340500Y1195750D02*
X350000D01*
X340500Y1213250D02*
X350000D01*
X340500Y1195750D02*
Y1213250D01*
X350000Y1195750D02*
Y1213250D01*
X334000Y1183500D02*
Y1220500D01*
X304000Y1183500D02*
Y1220500D01*
X334000D01*
X304000Y1183500D02*
X334000D01*
X237350Y1248000D02*
Y1266000D01*
X271350Y1248000D02*
Y1266000D01*
X237350D02*
X271350D01*
X237350Y1248000D02*
X271350D01*
X82750Y209250D02*
Y223750D01*
X60750Y209250D02*
Y223750D01*
Y209250D02*
X82750D01*
X60750Y223750D02*
X82750D01*
X63750Y249250D02*
Y263750D01*
X85750Y249250D02*
Y263750D01*
X63750D02*
X85750D01*
X63750Y249250D02*
X85750D01*
X157250Y212000D02*
Y253000D01*
X116250Y212000D02*
Y253000D01*
X157250D01*
X116250Y212000D02*
X157250D01*
X306410Y77400D02*
X336410D01*
X306410Y107400D02*
X336410D01*
Y77400D02*
Y107400D01*
X306410Y77400D02*
Y107400D01*
X331250Y46750D02*
X348750D01*
X331250Y13250D02*
X348750D01*
X331250D02*
Y46750D01*
X348750Y13250D02*
Y46750D01*
X301250D02*
X318750D01*
X301250Y13250D02*
X318750D01*
X301250D02*
Y46750D01*
X318750Y13250D02*
Y46750D01*
X270750Y46920D02*
X288250D01*
X270750Y13420D02*
X288250D01*
X270750D02*
Y46920D01*
X288250Y13420D02*
Y46920D01*
D14*
X21500Y250000D02*
Y295000D01*
X53500D01*
Y250000D02*
Y295000D01*
X21500Y250000D02*
X53500D01*
X102500Y319000D02*
X147500D01*
X102500D02*
Y351000D01*
X147500D01*
Y319000D02*
Y351000D01*
X157250Y70730D02*
X246650D01*
Y1730D02*
Y70730D01*
X157250Y1730D02*
X246650D01*
X157250D02*
Y70730D01*
D132*
X219988Y1432000D02*
D03*
D133*
X319000Y1185988D02*
D03*
M02*
