G04*
G04 #@! TF.GenerationSoftware,Altium Limited,Altium Designer,20.2.7 (254)*
G04*
G04 Layer_Color=12632256*
%FSLAX44Y44*%
%MOMM*%
G71*
G04*
G04 #@! TF.SameCoordinates,09A48B07-2891-40CF-AB4D-50A5A77D63B2*
G04*
G04*
G04 #@! TF.FilePolarity,Positive*
G04*
G01*
G75*
%ADD117C,3.5000*%
%ADD118C,1.8000*%
%ADD119C,1.5000*%
%ADD120C,2.0000*%
%ADD121R,2.9000X2.5000*%
%ADD122R,6.0000X5.0000*%
%ADD123R,4.0000X5.0000*%
%ADD124R,1.5000X1.5000*%
%ADD125O,1.0000X1.7000*%
D117*
X74750Y1296700D02*
D03*
Y1398300D02*
D03*
D118*
X125550Y1347500D02*
D03*
Y1322100D02*
D03*
D119*
X410000Y246390D02*
D03*
Y195590D02*
D03*
X223200Y1482000D02*
D03*
X248600D02*
D03*
X274000D02*
D03*
D120*
X333800Y195590D02*
D03*
Y220990D02*
D03*
Y246390D02*
D03*
X370220Y1322500D02*
D03*
Y1347500D02*
D03*
Y1372500D02*
D03*
D121*
X337220Y1388500D02*
D03*
Y1306500D02*
D03*
D122*
X315000Y590000D02*
D03*
Y985000D02*
D03*
X105000Y590000D02*
D03*
Y985000D02*
D03*
D123*
X315000Y430000D02*
D03*
Y1145000D02*
D03*
X105000Y430000D02*
D03*
Y1145000D02*
D03*
D124*
X299400Y1482000D02*
D03*
D125*
X245150Y27730D02*
D03*
X158770Y27630D02*
D03*
X245150Y65730D02*
D03*
X158750D02*
D03*
M02*
