G04*
G04 #@! TF.GenerationSoftware,Altium Limited,Altium Designer,20.2.7 (254)*
G04*
G04 Layer_Color=16711935*
%FSLAX44Y44*%
%MOMM*%
G71*
G04*
G04 #@! TF.SameCoordinates,09A48B07-2891-40CF-AB4D-50A5A77D63B2*
G04*
G04*
G04 #@! TF.FilePolarity,Negative*
G04*
G01*
G75*
%ADD65R,1.4016X1.9016*%
%ADD74R,1.9016X1.4016*%
%ADD99C,3.6016*%
%ADD100C,1.9016*%
%ADD101C,1.6016*%
%ADD102C,2.1016*%
%ADD103R,3.0016X2.6016*%
%ADD104R,6.1016X5.1016*%
%ADD105R,4.1016X5.1016*%
%ADD106R,1.6016X1.6016*%
%ADD107O,1.1016X1.8016*%
%ADD108C,0.7874*%
%ADD109C,0.6096*%
D65*
X312000Y1199000D02*
D03*
X341000D02*
D03*
D74*
X340000Y44500D02*
D03*
Y15500D02*
D03*
X310000Y44500D02*
D03*
Y15500D02*
D03*
X279500Y44670D02*
D03*
Y15670D02*
D03*
D99*
X74750Y1296700D02*
D03*
Y1398300D02*
D03*
D100*
X125550Y1347500D02*
D03*
Y1322100D02*
D03*
D101*
X410000Y246390D02*
D03*
Y195590D02*
D03*
X223200Y1482000D02*
D03*
X248600D02*
D03*
X274000D02*
D03*
D102*
X333800Y195590D02*
D03*
Y220990D02*
D03*
Y246390D02*
D03*
X370220Y1322500D02*
D03*
Y1347500D02*
D03*
Y1372500D02*
D03*
D103*
X337220Y1388500D02*
D03*
Y1306500D02*
D03*
D104*
X315000Y590000D02*
D03*
Y985000D02*
D03*
X105000Y590000D02*
D03*
Y985000D02*
D03*
D105*
X315000Y430000D02*
D03*
Y1145000D02*
D03*
X105000Y430000D02*
D03*
Y1145000D02*
D03*
D106*
X299400Y1482000D02*
D03*
D107*
X245150Y27730D02*
D03*
X158770Y27630D02*
D03*
X245150Y65730D02*
D03*
X158750D02*
D03*
D108*
X142250Y238000D02*
D03*
Y227000D02*
D03*
X131250Y238000D02*
D03*
Y227000D02*
D03*
X171000Y893000D02*
D03*
D109*
X325220Y84780D02*
D03*
X317600Y89860D02*
D03*
X325220Y94940D02*
D03*
X317600Y100020D02*
D03*
M02*
